<?xml version="1.0" encoding="UTF-8"?>
<svg width="36px" height="32px" viewBox="0 0 36 32" version="1.1" xmlns="http://www.w3.org/2000/svg" xmlns:xlink="http://www.w3.org/1999/xlink">
    <title>D74429FA-D718-4391-953A-4DAB8937A76B</title>
    <g id="Design" stroke="none" stroke-width="1" fill="none" fill-rule="evenodd">
        <g id="Homepage-Cards" transform="translate(-153.000000, -3198.000000)" fill="#00B050" fill-rule="nonzero">
            <g id="Compare-Quoted-vs-Assessed-Values" transform="translate(153.000000, 3001.000000)">
                <g transform="translate(0.000000, 197.000000)" id="bxs-camera">
                    <path d="M17.5,12 C14.519,12 12,14.519 12,17.5 C12,20.481 14.519,23 17.5,23 C20.481,23 23,20.481 23,17.5 C23,14.519 20.481,12 17.5,12 Z" id="Path"></path>
                    <path d="M32.4,5.33333674 L27.7452,5.33333674 L22.8726,0.520892579 C22.5355635,0.186806538 22.0775085,-0.000680292528 21.6,1.85493082e-06 L14.4,1.85493082e-06 C13.9224915,-0.000680292528 13.4644365,0.186806538 13.1274,0.520892579 L8.2548,5.33333674 L3.6,5.33333674 C1.6146,5.33333674 0,6.92800332 0,8.88889209 L0,28.4444465 C0,30.4053353 1.6146,32.0000019 3.6,32.0000019 L32.4,32.0000019 C34.3854,32.0000019 36,30.4053353 36,28.4444465 L36,8.88889209 C36,6.92800332 34.3854,5.33333674 32.4,5.33333674 Z M18,26.6666688 C13.122,26.6666688 9,22.595558 9,17.7777805 C9,12.960003 13.122,8.88889209 18,8.88889209 C22.878,8.88889209 27,12.960003 27,17.7777805 C27,22.595558 22.878,26.6666688 18,26.6666688 Z" id="Shape"></path>
                </g>
            </g>
        </g>
    </g>
</svg>