<?xml version="1.0" encoding="UTF-8"?>
<svg width="32px" height="32px" viewBox="0 0 32 32" version="1.1" xmlns="http://www.w3.org/2000/svg" xmlns:xlink="http://www.w3.org/1999/xlink">
    <title>B67F637E-AC56-4423-8EA2-2362F6C0CB56</title>
    <g id="Design" stroke="none" stroke-width="1" fill="none" fill-rule="evenodd">
        <g id="Homepage-Cards" transform="translate(-704.000000, -3659.000000)" fill="#00B050" fill-rule="nonzero">
            <g id="Group-5" transform="translate(152.424779, 3659.000000)">
                <g id="Repair-Assesments" transform="translate(142.575221, 0.000000)">
                    <g id="bxs-zoom-in" transform="translate(409.000000, 0.000000)">
                        <path d="M13.684717,0 C6.13930614,0 0,6.13897798 0,13.6839855 C0,21.2289929 6.13930614,27.3679709 13.684717,27.3679709 C16.7209735,27.3673472 19.6697351,26.350961 22.0614743,24.48065 L29.5812263,32 L32,29.5813556 L24.480248,22.0620056 C26.3516329,19.6701552 27.3687037,16.7208678 27.3694339,13.6839855 C27.3694339,6.13897798 21.2301278,0 13.684717,0 Z M20.5270754,15.3944836 L15.3953066,15.3944836 L15.3953066,20.5259782 L11.9741273,20.5259782 L11.9741273,15.3944836 L6.84235848,15.3944836 L6.84235848,11.9734873 L11.9741273,11.9734873 L11.9741273,6.84199273 L15.3953066,6.84199273 L15.3953066,11.9734873 L20.5270754,11.9734873 L20.5270754,15.3944836 Z" id="Shape"></path>
                    </g>
                </g>
            </g>
        </g>
    </g>
</svg>