<?xml version="1.0" encoding="UTF-8"?>
<svg width="33px" height="32px" viewBox="0 0 33 32" version="1.1" xmlns="http://www.w3.org/2000/svg" xmlns:xlink="http://www.w3.org/1999/xlink">
    <title>BB0E259C-BC3A-4B71-B32E-16F7242E5EF8</title>
    <g id="Design" stroke="none" stroke-width="1" fill="none" fill-rule="evenodd">
        <g id="Homepage-Cards" transform="translate(-789.000000, -821.000000)" fill="#00B050" fill-rule="nonzero">
            <g id="Features" transform="translate(105.530973, 644.000000)">
                <g id="Customer-Satisfaction" transform="translate(0.000000, 103.000000)">
                    <g transform="translate(683.099198, 74.000000)" id="bxs-like">
                        <g transform="translate(0.451796, 0.000000)">
                            <path d="M3.2,32 L4.8,32 L4.8,10.1052632 L3.2,10.1052632 C1.4326888,10.1052632 0,11.6133566 0,13.4736842 L0,28.6315789 C0,30.4919065 1.4326888,32 3.2,32 Z M28.8,10.1052632 L17.6,10.1052632 L19.3952,4.43284211 C19.7201546,3.40584791 19.556435,2.27704022 18.9551635,1.39889665 C18.3538921,0.520753092 17.3883373,-3.73969861e-16 16.36,-3.73969861e-16 L16,-3.73969861e-16 L8,9.15873684 L8,32 L25.6,32 L31.8592,17.5225263 L32,16.8421053 L32,13.4736842 C32,11.6133566 30.5673112,10.1052632 28.8,10.1052632 Z" id="Shape"></path>
                        </g>
                    </g>
                </g>
            </g>
        </g>
    </g>
</svg>