<?xml version="1.0" encoding="UTF-8"?>
<svg width="185px" height="39px" viewBox="0 0 185 39" version="1.1" xmlns="http://www.w3.org/2000/svg" xmlns:xlink="http://www.w3.org/1999/xlink">
    <title>A1B6DBA1-A281-4AE5-A9AE-468886D2B67C</title>
    <defs>
        <path d="M26.2537533,7.31922128 L30.7049502,7.31922128 L26.2537533,2.76319149 L26.2537533,7.31922128 Z M31.4531403,7.63312979 L25.9370106,7.63312979 L25.9370106,1.98875106 L31.4531403,7.63312979 Z M1.26032173,8.61651064 C1.23946179,8.62812766 1.22904015,8.64505532 1.22643057,8.65542766 C1.22252038,8.6658 1.21730956,8.68521702 1.22904015,8.70728936 L10.2996643,27.6773043 L13.4878759,26.1672574 L4.41594275,7.19724255 C4.39770072,7.16222553 4.3664108,7.15832553 4.35337959,7.15832553 L1.26032173,8.61651064 Z M10.1510768,28.0976745 L0.942278446,8.84221277 C0.899266275,8.75143404 0.892754837,8.6463 0.926637657,8.55029362 C0.961829433,8.45428723 1.03091237,8.37645319 1.12476544,8.33239149 L4.18914296,6.8807617 C4.24128448,6.8573617 4.29602725,6.84441702 4.35337959,6.84441702 C4.47068551,6.84441702 4.62449217,6.90150638 4.70139549,7.06231915 L13.9075843,26.3177809 L10.1510768,28.0976745 Z M10.9878841,28.6969468 L13.7563872,30.9918894 L13.8280714,27.3530234 L10.9878841,28.6969468 Z M14.060082,31.6521511 L10.4052396,28.6255851 L14.153935,26.8496745 L14.060082,31.6521511 Z M7.248318,24.1254 L7.248318,36.8607255 C7.248318,36.8996426 7.27829896,36.9294319 7.31740093,36.9294319 L25.03373,36.9294319 C25.0324294,36.9074426 25.0324294,36.8840426 25.0324294,36.8607255 L25.0324294,13.556483 C25.0324294,12.8481766 25.6111553,12.2722213 26.3215272,12.2722213 L32.1583098,12.2722213 L32.1583098,8.80586809 L31.892433,8.5347766 L25.0324294,8.5347766 L25.0324294,1.51261915 L24.7417575,1.21555532 L7.31740093,1.21555532 C7.27829896,1.21555532 7.248318,1.24534468 7.248318,1.2842617 L7.248318,10.2938426 L15.0624265,26.6343447 L14.9568511,32.0452213 C14.9490307,32.4408638 14.6296868,32.752283 14.2295294,32.752283 C14.0613909,32.752283 13.9023651,32.6951936 13.770719,32.5849149 L9.65446505,29.1549064 L7.248318,24.1254 Z M25.406516,37.2434234 L7.31740093,37.2434234 C7.10494131,37.2434234 6.93288429,37.073483 6.93288429,36.8607255 L6.93288429,23.4638106 L6.50144528,22.5621638 L6.78689803,22.4272404 L6.81035921,22.4765298 L9.92557763,28.988866 L13.972757,32.3422851 C14.2060682,32.5356255 14.633597,32.4071745 14.6414174,32.0387489 L14.7456921,26.7018064 L6.93288429,10.3288596 L6.93288429,1.2842617 C6.93288429,1.07283191 7.10494131,0.90156383 7.31740093,0.90156383 L24.8747125,0.90156383 L25.3491637,1.38549574 L25.3491637,8.21821277 L32.0266637,8.21821277 L32.4750441,8.67874468 L32.4750441,12.5874574 L26.3215272,12.5874574 C25.7858135,12.5874574 25.3491637,13.022017 25.3491637,13.556483 L25.3491637,36.8607255 C25.3491637,36.9268596 25.3556835,36.9917489 25.3674141,37.0553106 L25.406516,37.2434234 Z M26.3215272,13.4877766 C26.2837259,13.4877766 26.2537533,13.517566 26.2537533,13.556483 L26.2537533,36.8607255 C26.2537533,36.8996426 26.2837259,36.9294319 26.3215272,36.9294319 L43.0629249,36.9294319 C43.1020268,36.9294319 43.1319578,36.8996426 43.1319578,36.8607255 L43.1319578,13.556483 C43.1319578,13.517566 43.1020268,13.4877766 43.0629249,13.4877766 L26.3215272,13.4877766 Z M43.0629249,37.2434234 L26.3215272,37.2434234 C26.1103682,37.2434234 25.9370106,37.073483 25.9370106,36.8607255 L25.9370106,13.556483 C25.9370106,13.3450532 26.1103682,13.1737851 26.3215272,13.1737851 L43.0629249,13.1737851 C43.2766934,13.1737851 43.4474415,13.3450532 43.4474415,13.556483 L43.4474415,36.8607255 C43.4474415,37.073483 43.2766934,37.2434234 43.0629249,37.2434234 Z M4.35337959,6.25800638 C4.20869395,6.25800638 4.06792684,6.28920638 3.93628075,6.35276809 L0.870594273,7.80307021 C0.637274712,7.9146766 0.460006871,8.1092617 0.373982528,8.35446383 C0.285348608,8.59701064 0.299688777,8.86038511 0.411783882,9.09388723 L6.34372843,21.5010319 L6.34372843,36.8607255 C6.34372843,37.3965191 6.78037825,37.8310787 7.31740093,37.8310787 L43.0629249,37.8310787 C43.6011815,37.8310787 44.0378897,37.3965191 44.0378897,36.8607255 L44.0378897,13.556483 C44.0378897,13.022017 43.6011815,12.5874574 43.0629249,12.5874574 L33.0642416,12.5874574 L33.0642416,8.44001489 L25.1236645,0.31523617 L7.31740093,0.31523617 C6.78037825,0.31523617 6.34372843,0.749795745 6.34372843,1.2842617 L6.34372843,9.13280426 L5.23319901,6.8094 C5.07288092,6.47466383 4.72616563,6.25800638 4.35337959,6.25800638 Z M43.0629249,38.1449872 L7.31740093,38.1449872 C6.60571999,38.1449872 6.0269941,37.5690319 6.0269941,36.8607255 L6.0269941,21.571066 L0.126331134,9.23005532 C-0.0222647042,8.92004681 -0.0405067339,8.57236596 0.0754985682,8.24932979 C0.190194913,7.9263766 0.424815094,7.66690213 0.736338604,7.51895106 L3.7994155,6.06732128 C3.9740821,5.98558723 4.16177158,5.94277021 4.35337959,5.94277021 C4.84868237,5.94277021 5.30619215,6.23078936 5.51865176,6.67580426 L6.0269941,7.73950851 L6.0269941,1.2842617 C6.0269941,0.575955319 6.60571999,0 7.31740093,0 L25.2566196,0 L33.380976,8.31289149 L33.380976,12.2722213 L43.0629249,12.2722213 C43.7745975,12.2722213 44.35329,12.8481766 44.35329,13.556483 L44.35329,36.8607255 C44.35329,37.5690319 43.7745975,38.1449872 43.0629249,38.1449872 Z" id="path-1"></path>
        <path d="M7.88842724,5.76901277 C7.88842724,4.38094468 7.19759791,3.68691064 5.81593924,3.68691064 L3.62747929,3.68691064 L3.62747929,11.3485851 L5.81593924,11.3485851 C6.39204722,11.3485851 6.88219755,11.1448723 7.28488952,10.7362851 C7.68766486,10.3301872 7.88842724,9.8385383 7.88842724,9.26515532 L7.88842724,5.76901277 Z M5.71947659,0 C7.74244098,0 9.22573143,0.552638298 10.1733498,1.66181489 C11.0062469,2.62959574 11.4207778,3.98007447 11.4207778,5.7119234 L11.4207778,9.18989362 C11.4207778,10.8828255 10.7755536,12.316366 9.48385448,13.4877766 L12.1702185,23.9386149 L8.24559751,23.9386149 L6.04663255,14.921234 L5.71947659,14.921234 L3.62747929,14.921234 L3.62747929,23.9386149 L0,23.9386149 L0,0 L5.71947659,0 Z" id="path-3"></path>
        <polygon id="path-5" points="0 23.9580319 0 0 10.3271732 0 10.3271732 3.62982128 3.62747929 3.62982128 3.62747929 10.1641468 8.52189589 10.1641468 8.52189589 13.7939681 3.62747929 13.7939681 3.62747929 20.326966 10.3271732 20.326966 10.3271732 23.9580319"></polygon>
        <path d="M7.88834387,5.76901277 C7.88834387,5.14634043 7.69942047,4.64299149 7.32140693,4.26029362 C6.94472736,3.87759574 6.4429048,3.68691064 5.81593924,3.68691064 L3.62747929,3.68691064 L3.62747929,11.3485851 L5.81593924,11.3485851 C6.39204722,11.3485851 6.88211418,11.1448723 7.28488952,10.7362851 C7.68766486,10.3301872 7.88834387,9.8385383 7.88834387,9.26515532 L7.88834387,5.76901277 Z M5.71947659,0 C7.48565189,0 8.89332296,0.552638298 9.94257316,1.66181489 C10.9149534,2.71912979 11.4011852,4.06828085 11.4011852,5.7119234 L11.4011852,9.18989362 C11.4011852,10.7687298 10.848505,12.1191255 9.74189416,13.2400021 C8.63394931,14.3608787 7.29397719,14.921234 5.71947659,14.921234 L3.62747929,14.921234 L3.62747929,23.9386149 L0,23.9386149 L0,0 L5.71947659,0 Z" id="path-7"></path>
        <path d="M6.56412925,5.48364894 L5.22032197,14.921234 L7.90801991,14.921234 L6.56412925,5.48364894 Z M4.65847079,18.4368766 L3.77738409,23.9399426 L0,23.9399426 L4.08886591,0 L9.07974516,0 L13.1086658,23.9399426 L9.29618168,23.9399426 L8.44627651,18.4368766 L4.65847079,18.4368766 Z" id="path-9"></path>
        <polygon id="path-11" points="0 0 3.62872989 0 3.62872989 23.9385319 0 23.9385319"></polygon>
        <path d="M7.88967784,5.76901277 C7.88967784,4.38094468 7.1988485,3.68691064 5.81593924,3.68691064 L3.62747929,3.68691064 L3.62747929,11.3485851 L5.81593924,11.3485851 C6.39338119,11.3485851 6.88211418,11.1448723 7.28488952,10.7362851 C7.68899883,10.3301872 7.88967784,9.8385383 7.88967784,9.26515532 L7.88967784,5.76901277 Z M5.72081056,0 C7.74244098,0 9.22706539,0.552638298 10.1733498,1.66181489 C11.0062469,2.62959574 11.4220284,3.98007447 11.4220284,5.7119234 L11.4220284,9.18989362 C11.4220284,10.8828255 10.7755536,12.316366 9.48385448,13.4877766 L12.1702185,23.9386149 L8.24684811,23.9386149 L6.04663255,14.921234 L5.72081056,14.921234 L3.62747929,14.921234 L3.62747929,23.9386149 L0,23.9386149 L0,0 L5.72081056,0 Z" id="path-13"></path>
        <path d="M11.9968025,18.2851085 C12.0228982,19.9533957 11.587524,21.3803809 10.6920971,22.5648191 C10.1028996,23.3664766 9.2713365,23.9333872 8.19599053,24.2642234 C7.62121652,24.4419638 6.94864589,24.5314979 6.18086321,24.5314979 C4.76010257,24.5314979 3.58312481,24.1824894 2.64859597,23.481983 C1.86780709,22.9072723 1.25126317,22.1276043 0.79637965,21.1404064 C0.342746728,20.1531255 0.0756193826,19.0232043 0,17.7506426 L3.45406329,17.5015404 C3.60788662,18.8974085 3.98064766,19.9080064 4.56851123,20.5345787 C5.00388545,21.0106277 5.50312345,21.2325128 6.06614185,21.2078681 C6.85868634,21.1818957 7.49215499,20.7940532 7.96663119,20.0416021 C8.20899673,19.6706043 8.33022118,19.1426106 8.33022118,18.4550489 C8.33022118,17.4587234 7.87667163,16.4727702 6.96815519,15.4908 C6.25123009,14.8148553 5.17721808,13.8016851 3.74345125,12.4499617 C2.53904375,11.2889234 1.68922195,10.2511085 1.18998396,9.33261702 C0.652977954,8.30127447 0.38451664,7.17782553 0.38451664,5.96749787 C0.38451664,3.78673404 1.11961708,2.13661915 2.59123529,1.01449787 C3.49841777,0.33863617 4.62587191,0 5.96976257,0 C7.26146169,0 8.36932316,0.288019149 9.2908458,0.860157447 C10.0077709,1.30641702 10.5864634,1.9316617 11.0283408,2.73340213 C11.4702181,3.53505957 11.7348442,4.45877872 11.8248038,5.50306596 L8.34981386,6.1335383 C8.24684811,5.15405745 7.96663119,4.3886617 7.5051612,3.84125106 C7.1728361,3.44685319 6.69310741,3.24836809 6.06614185,3.24836809 C5.39882373,3.24836809 4.8944166,3.54285957 4.54900193,4.12794255 C4.26745105,4.59884681 4.12663392,5.18525745 4.12663392,5.88443617 C4.12663392,6.98066809 4.59977614,8.09631702 5.54739455,9.2301383 C5.90456483,9.66212553 6.4429048,10.1719468 7.15974653,10.7570298 C8.00439919,11.4575362 8.56099787,11.9479404 8.82945918,12.2281596 C9.72622002,13.1206787 10.4170494,13.9989255 10.9032811,14.8641447 C11.1339745,15.2728149 11.3177287,15.6490404 11.4597964,15.9914936 C11.8052111,16.8464234 11.9837963,17.6092468 11.9968025,18.2851085 Z" id="path-15"></path>
        <polygon id="path-17" points="3.62739592 13.7938851 3.62739592 23.9386149 0 23.9386149 0 0 3.62739592 0 3.62739592 10.1641468 8.00306522 10.1641468 8.00306522 0 11.6331291 0 11.6331291 23.9386149 8.00306522 23.9386149 8.00306522 13.7938851"></polygon>
        <path d="M7.71767917,5.65475106 C7.71767917,5.08269574 7.51558283,4.59494681 7.11155689,4.1940766 C6.71011551,3.79187872 6.21996518,3.59214894 5.64385721,3.59214894 C5.06774923,3.59214894 4.57509771,3.79187872 4.16581926,4.1940766 C3.75520685,4.59494681 3.55185991,5.08269574 3.55185991,5.65475106 L3.55185991,18.7624021 C3.55185991,19.3345404 3.75520685,19.8222894 4.16581926,20.2218319 C4.57509771,20.6240298 5.06774923,20.8250872 5.64385721,20.8250872 C6.21996518,20.8250872 6.71011551,20.6240298 7.11155689,20.2218319 C7.51558283,19.8222894 7.71767917,19.3345404 7.71767917,18.7624021 L7.71767917,5.65475106 Z M5.73906926,0 C7.33966563,0 8.69914706,0.560438298 9.81876414,1.68123191 C10.9384646,2.80210851 11.4976478,4.15258723 11.4976478,5.73258511 L11.4976478,18.8000745 C11.4976478,20.3917723 10.93588,21.7449064 9.8083425,22.8605553 C8.68222232,23.9735489 7.32665943,24.5314149 5.73906926,24.5314149 C4.13972349,24.5314149 2.7841606,23.9709766 1.66971265,22.850183 C0.557849271,21.730634 0,20.3788277 0,18.8000745 L0,5.73258511 C0,4.13955957 0.563101775,2.78650851 1.68922195,1.67218723 C2.8154255,0.557782979 4.16581926,0 5.73906926,0 Z" id="path-19"></path>
        <path d="M7.88842724,5.76901277 C7.88842724,5.14634043 7.69942047,4.64299149 7.3227409,4.26029362 C6.94472736,3.87759574 6.4429048,3.68691064 5.81593924,3.68691064 L3.62747929,3.68691064 L3.62747929,11.3485851 L5.81593924,11.3485851 C6.39338119,11.3485851 6.88219755,11.1448723 7.28497289,10.7362851 C7.68774824,10.3301872 7.88842724,9.8385383 7.88842724,9.26515532 L7.88842724,5.76901277 Z M5.71955996,0 C7.48565189,0 8.89340633,0.552638298 9.94265653,1.66181489 C10.9150368,2.71912979 11.4011852,4.06828085 11.4011852,5.7119234 L11.4011852,9.18989362 C11.4011852,10.7687298 10.8485884,12.1191255 9.74189416,13.2400021 C8.63403268,14.3608787 7.29406056,14.921234 5.71955996,14.921234 L3.62747929,14.921234 L3.62747929,23.9386149 L0,23.9386149 L0,0 L5.71955996,0 Z" id="path-21"></path>
        <path d="M12.8491424,0 C13.1568953,0 13.4079071,0.3033 13.4079071,0.6785 L13.4079071,5.833 C13.4079071,6.2098 13.1568953,6.513 12.8491424,6.513 L0.557471765,6.513 C0.249776471,6.513 0,6.2098 0,5.833 L0,0.6785 C0,0.3033 0.249776471,0 0.557471765,0 L12.8491424,0 Z M0.893554118,5.4281 L12.5131424,5.4281 L12.5131424,1.0866 L0.893554118,1.0866 L0.893554118,5.4281 Z" id="path-23"></path>
        <path d="M1.20764,4.7495875 L12.5156871,4.7495875 L12.5156871,1.2817875 L1.20764,1.2817875 L1.20764,4.7495875 Z M0.893545882,5.0806 L0.893545882,0.949375 L12.8272282,0.949375 L12.8272282,5.0806 L0.893545882,5.0806 Z M0.715828235,0.3324125 C0.493104706,0.3324125 0.314143529,0.52395 0.314143529,0.7592375 L0.314143529,5.2707375 C0.314143529,5.507425 0.493104706,5.6989625 0.715828235,5.6989625 L13.0074988,5.6989625 C13.2289459,5.6989625 13.4104518,5.507425 13.4104518,5.2707375 L13.4104518,0.7592375 C13.4104518,0.52395 13.2289459,0.3324125 13.0074988,0.3324125 L0.715828235,0.3324125 Z M13.0074988,6.031375 L0.715828235,6.031375 C0.321868235,6.031375 0,5.6893375 0,5.2707375 L0,0.7592375 C0,0.3406375 0.321868235,0 0.715828235,0 L13.0074988,0 C13.4014753,0 13.7220753,0.3406375 13.7220753,0.7592375 L13.7220753,5.2707375 C13.7220753,5.6893375 13.4014753,6.031375 13.0074988,6.031375 Z" id="path-25"></path>
        <path d="M3.5692,0 C3.9429,0 4.2477,0.3033 4.2477,0.68 L4.2477,3.5692 C4.2477,3.9428 3.9429,4.2477 3.5692,4.2477 L0.6785,4.2477 C0.3033,4.2477 0,3.9428 0,3.5692 L0,0.68 C0,0.3033 0.3033,0 0.6785,0 L3.5692,0 Z M1.085,3.1611 L3.1612,3.1611 L3.1612,1.085 L1.085,1.085 L1.085,3.1611 Z" id="path-27"></path>
        <path d="M1.46647,3.1627 L3.16267,3.1627 L3.16267,1.4649 L1.46647,1.4649 L1.46647,3.1627 Z M1.08657,3.5426 L1.08657,1.0866 L3.54257,1.0866 L3.54257,3.5426 L1.08657,3.5426 Z M0.86927,0.3799 C0.59877,0.3799 0.37987,0.5988 0.37987,0.8693 L0.37987,3.7599 C0.37987,4.0304 0.59877,4.2477 0.86927,4.2477 L3.75997,4.2477 C4.02887,4.2477 4.24767,4.0304 4.24767,3.7599 L4.24767,0.8693 C4.24767,0.5988 4.02887,0.3799 3.75997,0.3799 L0.86927,0.3799 Z M3.75997,4.6276 L0.86927,4.6276 C0.38927,4.6276 0,4.2368 0,3.7599 L0,0.8693 C0,0.3893 0.38927,0 0.86927,0 L3.75997,0 C4.23827,0 4.62757,0.3893 4.62757,0.8693 L4.62757,3.7599 C4.62757,4.2368 4.23827,4.6276 3.75997,4.6276 Z" id="path-29"></path>
        <path d="M3.5692,0 C3.9428,0 4.2477,0.3033 4.2477,0.68 L4.2477,3.5692 C4.2477,3.9428 3.9428,4.2477 3.5692,4.2477 L0.6769,4.2477 C0.3033,4.2477 0,3.9428 0,3.5692 L0,0.68 C0,0.3033 0.3033,0 0.6769,0 L3.5692,0 Z M1.085,3.1611 L3.1611,3.1611 L3.1611,1.085 L1.085,1.085 L1.085,3.1611 Z" id="path-31"></path>
        <path d="M1.4649,3.1627 L3.1627,3.1627 L3.1627,1.4649 L1.4649,1.4649 L1.4649,3.1627 Z M1.0865,3.5426 L1.0865,1.0866 L3.541,1.0866 L3.541,3.5426 L1.0865,3.5426 Z M0.8677,0.3799 C0.5988,0.3799 0.3783,0.5988 0.3783,0.8693 L0.3783,3.7599 C0.3783,4.0304 0.5988,4.2477 0.8677,4.2477 L3.7584,4.2477 C4.0273,4.2477 4.2477,4.0304 4.2477,3.7599 L4.2477,0.8693 C4.2477,0.5988 4.0273,0.3799 3.7584,0.3799 L0.8677,0.3799 Z M3.7584,4.6276 L0.8677,4.6276 C0.3893,4.6276 0,4.2368 0,3.7599 L0,0.8693 C0,0.3893 0.3893,0 0.8677,0 L3.7584,0 C4.2368,0 4.626,0.3893 4.626,0.8693 L4.626,3.7599 C4.626,4.2368 4.2368,4.6276 3.7584,4.6276 Z" id="path-33"></path>
        <path d="M3.5692,0 C3.9444,0 4.2477,0.3033 4.2477,0.68 L4.2477,3.5692 C4.2477,3.9428 3.9444,4.2477 3.5692,4.2477 L0.6785,4.2477 C0.3033,4.2477 0,3.9428 0,3.5692 L0,0.68 C0,0.3033 0.3033,0 0.6785,0 L3.5692,0 Z M1.085,3.1611 L3.1611,3.1611 L3.1611,1.085 L1.085,1.085 L1.085,3.1611 Z" id="path-35"></path>
        <path d="M1.4633,3.1627 L3.1611,3.1627 L3.1611,1.4649 L1.4633,1.4649 L1.4633,3.1627 Z M1.0865,3.5426 L1.0865,1.0866 L3.5426,1.0866 L3.5426,3.5426 L1.0865,3.5426 Z M0.8692,0.3799 C0.5988,0.3799 0.3799,0.5988 0.3799,0.8693 L0.3799,3.7599 C0.3799,4.0304 0.5988,4.2477 0.8692,4.2477 L3.7584,4.2477 C4.0288,4.2477 4.2477,4.0304 4.2477,3.7599 L4.2477,0.8693 C4.2477,0.5988 4.0288,0.3799 3.7584,0.3799 L0.8692,0.3799 Z M3.7584,4.6276 L0.8692,4.6276 C0.3893,4.6276 0,4.2368 0,3.7599 L0,0.8693 C0,0.3893 0.3893,0 0.8692,0 L3.7584,0 C4.2368,0 4.6276,0.3893 4.6276,0.8693 L4.6276,3.7599 C4.6276,4.2368 4.2368,4.6276 3.7584,4.6276 Z" id="path-37"></path>
        <path d="M3.5692,0 C3.9429,0 4.2477,0.3033 4.2477,0.6785 L4.2477,3.5676 C4.2477,3.9428 3.9429,4.2477 3.5692,4.2477 L0.6785,4.2477 C0.3033,4.2477 0,3.9428 0,3.5676 L0,0.6785 C0,0.3033 0.3033,0 0.6785,0 L3.5692,0 Z M1.085,3.1611 L3.1612,3.1611 L3.1612,1.0849 L1.085,1.0849 L1.085,3.1611 Z" id="path-39"></path>
        <path d="M1.46647,3.1627 L3.16267,3.1627 L3.16267,1.4664 L1.46647,1.4664 L1.46647,3.1627 Z M1.08657,3.5426 L1.08657,1.0865 L3.54257,1.0865 L3.54257,3.5426 L1.08657,3.5426 Z M0.86927,0.3799 C0.59877,0.3799 0.37987,0.5987 0.37987,0.8692 L0.37987,3.7583 C0.37987,4.0288 0.59877,4.2477 0.86927,4.2477 L3.75997,4.2477 C4.02887,4.2477 4.24767,4.0288 4.24767,3.7583 L4.24767,0.8692 C4.24767,0.5987 4.02887,0.3799 3.75997,0.3799 L0.86927,0.3799 Z M3.75997,4.6276 L0.86927,4.6276 C0.38927,4.6276 0,4.2383 0,3.7583 L0,0.8692 C0,0.3892 0.38927,0 0.86927,0 L3.75997,0 C4.23827,0 4.62757,0.3892 4.62757,0.8692 L4.62757,3.7583 C4.62757,4.2383 4.23827,4.6276 3.75997,4.6276 Z" id="path-41"></path>
        <path d="M3.5692,5.68434189e-14 C3.9428,5.68434189e-14 4.2477,0.3033 4.2477,0.6785 L4.2477,3.5676 C4.2477,3.9428 3.9428,4.2477 3.5692,4.2477 L0.6769,4.2477 C0.3033,4.2477 0,3.9428 0,3.5676 L0,0.6785 C0,0.3033 0.3033,5.68434189e-14 0.6769,5.68434189e-14 L3.5692,5.68434189e-14 Z M1.085,3.1611 L3.1611,3.1611 L3.1611,1.0849 L1.085,1.0849 L1.085,3.1611 Z" id="path-43"></path>
        <path d="M1.4649,3.1627 L3.1627,3.1627 L3.1627,1.4664 L1.4649,1.4664 L1.4649,3.1627 Z M1.0865,3.5426 L1.0865,1.0865 L3.541,1.0865 L3.541,3.5426 L1.0865,3.5426 Z M0.8677,0.3799 C0.5988,0.3799 0.3783,0.5987 0.3783,0.8692 L0.3783,3.7583 C0.3783,4.0288 0.5988,4.2477 0.8677,4.2477 L3.7584,4.2477 C4.0273,4.2477 4.2477,4.0288 4.2477,3.7583 L4.2477,0.8692 C4.2477,0.5987 4.0273,0.3799 3.7584,0.3799 L0.8677,0.3799 Z M3.7584,4.6276 L0.8677,4.6276 C0.3893,4.6276 0,4.2383 0,3.7583 L0,0.8692 C0,0.3892 0.3893,0 0.8677,0 L3.7584,0 C4.2368,0 4.626,0.3892 4.626,0.8692 L4.626,3.7583 C4.626,4.2383 4.2368,4.6276 3.7584,4.6276 Z" id="path-45"></path>
        <path d="M3.5692,0 C3.9444,0 4.2477,0.3033 4.2477,0.6785 L4.2477,3.5676 C4.2477,3.9428 3.9444,4.2477 3.5692,4.2477 L0.6785,4.2477 C0.3033,4.2477 0,3.9428 0,3.5676 L0,0.6785 C0,0.3033 0.3033,0 0.6785,0 L3.5692,0 Z M1.085,3.1611 L3.1611,3.1611 L3.1611,1.0849 L1.085,1.0849 L1.085,3.1611 Z" id="path-47"></path>
        <path d="M1.4633,3.1627 L3.1611,3.1627 L3.1611,1.4664 L1.4633,1.4664 L1.4633,3.1627 Z M1.0865,3.5426 L1.0865,1.0865 L3.5426,1.0865 L3.5426,3.5426 L1.0865,3.5426 Z M0.8692,0.3799 C0.5988,0.3799 0.3799,0.5987 0.3799,0.8692 L0.3799,3.7583 C0.3799,4.0288 0.5988,4.2477 0.8692,4.2477 L3.7584,4.2477 C4.0288,4.2477 4.2477,4.0288 4.2477,3.7583 L4.2477,0.8692 C4.2477,0.5987 4.0288,0.3799 3.7584,0.3799 L0.8692,0.3799 Z M3.7584,4.6276 L0.8692,4.6276 C0.3893,4.6276 0,4.2383 0,3.7583 L0,0.8692 C0,0.3892 0.3893,0 0.8692,0 L3.7584,0 C4.2368,0 4.6276,0.3892 4.6276,0.8692 L4.6276,3.7583 C4.6276,4.2383 4.2368,4.6276 3.7584,4.6276 Z" id="path-49"></path>
        <path d="M3.5692,0 C3.9429,0 4.2477,0.3033 4.2477,0.6785 L4.2477,3.5692 C4.2477,3.9429 3.9429,4.2477 3.5692,4.2477 L0.6785,4.2477 C0.3033,4.2477 0,3.9429 0,3.5692 L0,0.6785 C0,0.3033 0.3033,0 0.6785,0 L3.5692,0 Z M1.085,3.1612 L3.1612,3.1612 L3.1612,1.085 L1.085,1.085 L1.085,3.1612 Z" id="path-51"></path>
        <path d="M1.46647,3.1611 L3.16267,3.1611 L3.16267,1.4633 L1.46647,1.4633 L1.46647,3.1611 Z M1.08657,3.5395 L1.08657,1.085 L3.54257,1.085 L3.54257,3.5395 L1.08657,3.5395 Z M0.86927,0.3783 C0.59877,0.3783 0.37987,0.5972 0.37987,0.8661 L0.37987,3.7583 C0.37987,4.0272 0.59877,4.2461 0.86927,4.2461 L3.75997,4.2461 C4.02887,4.2461 4.24767,4.0272 4.24767,3.7583 L4.24767,0.8661 C4.24767,0.5972 4.02887,0.3783 3.75997,0.3783 L0.86927,0.3783 Z M3.75997,4.626 L0.86927,4.626 C0.38927,4.626 0,4.2367 0,3.7583 L0,0.8661 C0,0.3893 0.38927,0 0.86927,0 L3.75997,0 C4.23827,0 4.62757,0.3893 4.62757,0.8661 L4.62757,3.7583 C4.62757,4.2367 4.23827,4.626 3.75997,4.626 Z" id="path-53"></path>
        <path d="M3.5692,0 C3.9428,0 4.2477,0.3033 4.2477,0.6785 L4.2477,3.5692 C4.2477,3.9429 3.9428,4.2477 3.5692,4.2477 L0.6769,4.2477 C0.3033,4.2477 0,3.9429 0,3.5692 L0,0.6785 C0,0.3033 0.3033,0 0.6769,0 L3.5692,0 Z M1.085,3.1612 L3.1611,3.1612 L3.1611,1.085 L1.085,1.085 L1.085,3.1612 Z" id="path-55"></path>
        <path d="M1.4649,3.1611 L3.1627,3.1611 L3.1627,1.4633 L1.4649,1.4633 L1.4649,3.1611 Z M1.0865,3.5395 L1.0865,1.085 L3.541,1.085 L3.541,3.5395 L1.0865,3.5395 Z M0.8677,0.3783 C0.5988,0.3783 0.3783,0.5972 0.3783,0.8661 L0.3783,3.7583 C0.3783,4.0272 0.5988,4.2461 0.8677,4.2461 L3.7584,4.2461 C4.0273,4.2461 4.2477,4.0272 4.2477,3.7583 L4.2477,0.8661 C4.2477,0.5972 4.0273,0.3783 3.7584,0.3783 L0.8677,0.3783 Z M3.7584,4.626 L0.8677,4.626 C0.3893,4.626 0,4.2367 0,3.7583 L0,0.8661 C0,0.3893 0.3893,0 0.8677,0 L3.7584,0 C4.2368,0 4.626,0.3893 4.626,0.8661 L4.626,3.7583 C4.626,4.2367 4.2368,4.626 3.7584,4.626 Z" id="path-57"></path>
        <path d="M3.5692,0 C3.9444,0 4.2477,0.3033 4.2477,0.6785 L4.2477,3.5692 C4.2477,3.9429 3.9444,4.2477 3.5692,4.2477 L0.6785,4.2477 C0.3033,4.2477 0,3.9429 0,3.5692 L0,0.6785 C0,0.3033 0.3033,0 0.6785,0 L3.5692,0 Z M1.085,3.1612 L3.1611,3.1612 L3.1611,1.085 L1.085,1.085 L1.085,3.1612 Z" id="path-59"></path>
        <path d="M1.4633,3.1611 L3.1611,3.1611 L3.1611,1.4633 L1.4633,1.4633 L1.4633,3.1611 Z M1.0865,3.5395 L1.0865,1.085 L3.5426,1.085 L3.5426,3.5395 L1.0865,3.5395 Z M0.8692,0.3783 C0.5988,0.3783 0.3799,0.5972 0.3799,0.8661 L0.3799,3.7583 C0.3799,4.0272 0.5988,4.2461 0.8692,4.2461 L3.7584,4.2461 C4.0288,4.2461 4.2477,4.0272 4.2477,3.7583 L4.2477,0.8661 C4.2477,0.5972 4.0288,0.3783 3.7584,0.3783 L0.8692,0.3783 Z M3.7584,4.626 L0.8692,4.626 C0.3893,4.626 0,4.2367 0,3.7583 L0,0.8661 C0,0.3893 0.3893,0 0.8692,0 L3.7584,0 C4.2368,0 4.6276,0.3893 4.6276,0.8661 L4.6276,3.7583 C4.6276,4.2367 4.2368,4.626 3.7584,4.626 Z" id="path-61"></path>
    </defs>
    <g id="Design" stroke="none" stroke-width="1" fill="none" fill-rule="evenodd">
        <g id="Homepage-Cards" transform="translate(-72.000000, -32.000000)">
            <g id="Group-2" transform="translate(72.000104, 32.637028)">
                <g id="Group">
                    <g id="Group-1199">
                        <mask id="mask-2" fill="white">
                            <use xlink:href="#path-1"></use>
                        </mask>
                        <g id="Clip-1198"></g>
                        <polygon id="Fill-1197" fill="#F1F0EF" mask="url(#mask-2)" points="-4.16865804 -4.14893617 48.521944 -4.14893617 48.521944 42.2939234 -4.16865804 42.2939234"></polygon>
                    </g>
                    <g id="Group-1202" transform="translate(51.618253, 8.031511)">
                        <mask id="mask-4" fill="white">
                            <use xlink:href="#path-3"></use>
                        </mask>
                        <g id="Clip-1201"></g>
                        <polygon id="Fill-1200" fill="#F1F0EF" mask="url(#mask-4)" points="-4.16865395 -4.14893617 16.3388724 -4.14893617 16.3388724 28.0875511 -4.16865395 28.0875511"></polygon>
                    </g>
                    <g id="Group-1205" transform="translate(66.897037, 8.011928)">
                        <mask id="mask-6" fill="white">
                            <use xlink:href="#path-5"></use>
                        </mask>
                        <g id="Clip-1204"></g>
                        <polygon id="Fill-1203" fill="#F1F0EF" mask="url(#mask-6)" points="-4.16865395 -4.14893617 14.4958271 -4.14893617 14.4958271 28.1069681 -4.16865395 28.1069681"></polygon>
                    </g>
                    <g id="Group-1208" transform="translate(79.719900, 8.031511)">
                        <mask id="mask-8" fill="white">
                            <use xlink:href="#path-7"></use>
                        </mask>
                        <g id="Clip-1207"></g>
                        <polygon id="Fill-1206" fill="#F1F0EF" mask="url(#mask-8)" points="-4.16865395 -4.14893617 15.5698391 -4.14893617 15.5698391 28.0875511 -4.16865395 28.0875511"></polygon>
                    </g>
                    <g id="Group-1211" transform="translate(91.698194, 8.030598)">
                        <mask id="mask-10" fill="white">
                            <use xlink:href="#path-9"></use>
                        </mask>
                        <g id="Clip-1210"></g>
                        <polygon id="Fill-1209" fill="#F1F0EF" mask="url(#mask-10)" points="-4.16865395 -4.14893617 17.2773198 -4.14893617 17.2773198 28.0888787 -4.16865395 28.0888787"></polygon>
                    </g>
                    <g id="Group-1214" transform="translate(107.860732, 8.031428)">
                        <mask id="mask-12" fill="white">
                            <use xlink:href="#path-11"></use>
                        </mask>
                        <g id="Clip-1213"></g>
                        <polygon id="Fill-1212" fill="#F1F0EF" mask="url(#mask-12)" points="-4.16865395 -4.14893617 7.79738384 -4.14893617 7.79738384 28.0874681 -4.16865395 28.0874681"></polygon>
                    </g>
                    <g id="Group-1217" transform="translate(114.731924, 8.031511)">
                        <mask id="mask-14" fill="white">
                            <use xlink:href="#path-13"></use>
                        </mask>
                        <g id="Clip-1216"></g>
                        <polygon id="Fill-1215" fill="#F1F0EF" mask="url(#mask-14)" points="-4.16865395 -4.14893617 16.3388724 -4.14893617 16.3388724 28.0875511 -4.16865395 28.0875511"></polygon>
                    </g>
                    <g id="Group-1220" transform="translate(128.783790, 7.724323)">
                        <mask id="mask-16" fill="white">
                            <use xlink:href="#path-15"></use>
                        </mask>
                        <g id="Clip-1219"></g>
                        <polygon id="Fill-1218" fill="#F1F0EF" mask="url(#mask-16)" points="-4.16865395 -4.14893617 16.1666236 -4.14893617 16.1666236 28.680434 -4.16865395 28.680434"></polygon>
                    </g>
                    <g id="Group-1223" transform="translate(143.795113, 8.031013)">
                        <mask id="mask-18" fill="white">
                            <use xlink:href="#path-17"></use>
                        </mask>
                        <g id="Clip-1222"></g>
                        <polygon id="Fill-1221" fill="#F1F0EF" mask="url(#mask-18)" points="-4.16865395 -4.14893617 15.801783 -4.14893617 15.801783 28.0875511 -4.16865395 28.0875511"></polygon>
                    </g>
                    <g id="Group-1226" transform="translate(158.632769, 7.725153)">
                        <mask id="mask-20" fill="white">
                            <use xlink:href="#path-19"></use>
                        </mask>
                        <g id="Clip-1225"></g>
                        <polygon id="Fill-1224" fill="#F1F0EF" mask="url(#mask-20)" points="-4.16865395 -4.14893617 15.6663018 -4.14893617 15.6663018 28.6803511 -4.16865395 28.6803511"></polygon>
                    </g>
                    <g id="Group-1229" transform="translate(173.336946, 8.031511)">
                        <mask id="mask-22" fill="white">
                            <use xlink:href="#path-21"></use>
                        </mask>
                        <g id="Clip-1228"></g>
                        <polygon id="Fill-1227" fill="#F1F0EF" mask="url(#mask-22)" points="-4.16865395 -4.14893617 15.5698391 -4.14893617 15.5698391 28.0875511 -4.16865395 28.0875511"></polygon>
                    </g>
                </g>
                <g id="Group-1136" transform="translate(28.388577, 16.502572)">
                    <mask id="mask-24" fill="white">
                        <use xlink:href="#path-23"></use>
                    </mask>
                    <g id="Clip-1135"></g>
                    <polygon id="Fill-1134" fill="#F1F0EF" mask="url(#mask-24)" points="-4.11764706 -5 17.5255541 -5 17.5255541 11.513 -4.11764706 11.513"></polygon>
                </g>
                <g id="Group-1139" transform="translate(28.230221, 15.194047)">
                    <mask id="mask-26" fill="white">
                        <use xlink:href="#path-25"></use>
                    </mask>
                    <g id="Clip-1138"></g>
                    <polygon id="Fill-1137" fill="#F1F0EF" mask="url(#mask-26)" points="-4.11764706 -4.375 17.8397224 -4.375 17.8397224 10.406375 -4.11764706 10.406375"></polygon>
                </g>
                <g id="Group-1142" transform="translate(28.001196, 20.507272)">
                    <mask id="mask-28" fill="white">
                        <use xlink:href="#path-27"></use>
                    </mask>
                    <g id="Clip-1141"></g>
                    <polygon id="Fill-1140" fill="#F1F0EF" mask="url(#mask-28)" points="-4.99997 -5 9.2477 -5 9.2477 9.2477 -4.99997 9.2477"></polygon>
                </g>
                <g id="Group-1145" transform="translate(28.811126, 21.317272)">
                    <mask id="mask-30" fill="white">
                        <use xlink:href="#path-29"></use>
                    </mask>
                    <g id="Clip-1144"></g>
                    <polygon id="Fill-1143" fill="#F1F0EF" mask="url(#mask-30)" points="-5 -5 9.62757 -5 9.62757 9.6276 -5 9.6276"></polygon>
                </g>
                <g id="Group-1148" transform="translate(31.488396, 20.507272)">
                    <mask id="mask-32" fill="white">
                        <use xlink:href="#path-31"></use>
                    </mask>
                    <g id="Clip-1147"></g>
                    <polygon id="Fill-1146" fill="#F1F0EF" mask="url(#mask-32)" points="-5 -5 9.2477 -5 9.2477 9.2477 -5 9.2477"></polygon>
                </g>
                <g id="Group-1151" transform="translate(31.298596, 21.317272)">
                    <mask id="mask-34" fill="white">
                        <use xlink:href="#path-33"></use>
                    </mask>
                    <g id="Clip-1150"></g>
                    <polygon id="Fill-1149" fill="#F1F0EF" mask="url(#mask-34)" points="-5 -5 9.626 -5 9.626 9.6276 -5 9.6276"></polygon>
                </g>
                <g id="Group-1154" transform="translate(35.973996, 20.507272)">
                    <mask id="mask-36" fill="white">
                        <use xlink:href="#path-35"></use>
                    </mask>
                    <g id="Clip-1153"></g>
                    <polygon id="Fill-1152" fill="#F1F0EF" mask="url(#mask-36)" points="-5 -5 9.2477 -5 9.2477 9.2477 -5 9.2477"></polygon>
                </g>
                <g id="Group-1157" transform="translate(35.784496, 21.317272)">
                    <mask id="mask-38" fill="white">
                        <use xlink:href="#path-37"></use>
                    </mask>
                    <g id="Clip-1156"></g>
                    <polygon id="Fill-1155" fill="#F1F0EF" mask="url(#mask-38)" points="-5 -5 9.6276 -5 9.6276 9.6276 -5 9.6276"></polygon>
                </g>
                <g id="Group-1160" transform="translate(28.001196, 26.525672)">
                    <mask id="mask-40" fill="white">
                        <use xlink:href="#path-39"></use>
                    </mask>
                    <g id="Clip-1159"></g>
                    <polygon id="Fill-1158" fill="#F1F0EF" mask="url(#mask-40)" points="-4.99997 -5 9.2477 -5 9.2477 9.2477 -4.99997 9.2477"></polygon>
                </g>
                <g id="Group-1163" transform="translate(28.811126, 26.334772)">
                    <mask id="mask-42" fill="white">
                        <use xlink:href="#path-41"></use>
                    </mask>
                    <g id="Clip-1162"></g>
                    <polygon id="Fill-1161" fill="#F1F0EF" mask="url(#mask-42)" points="-5 -5 9.62757 -5 9.62757 9.6276 -5 9.6276"></polygon>
                </g>
                <g id="Group-1166" transform="translate(31.488396, 26.525672)">
                    <mask id="mask-44" fill="white">
                        <use xlink:href="#path-43"></use>
                    </mask>
                    <g id="Clip-1165"></g>
                    <polygon id="Fill-1164" fill="#F1F0EF" mask="url(#mask-44)" points="-5 -5 9.2477 -5 9.2477 9.2477 -5 9.2477"></polygon>
                </g>
                <g id="Group-1169" transform="translate(31.298596, 26.334772)">
                    <mask id="mask-46" fill="white">
                        <use xlink:href="#path-45"></use>
                    </mask>
                    <g id="Clip-1168"></g>
                    <polygon id="Fill-1167" fill="#F1F0EF" mask="url(#mask-46)" points="-5 -5 9.626 -5 9.626 9.6276 -5 9.6276"></polygon>
                </g>
                <g id="Group-1172" transform="translate(35.973996, 26.525672)">
                    <mask id="mask-48" fill="white">
                        <use xlink:href="#path-47"></use>
                    </mask>
                    <g id="Clip-1171"></g>
                    <polygon id="Fill-1170" fill="#F1F0EF" mask="url(#mask-48)" points="-5 -5 9.2477 -5 9.2477 9.2477 -5 9.2477"></polygon>
                </g>
                <g id="Group-1175" transform="translate(35.784496, 26.334772)">
                    <mask id="mask-50" fill="white">
                        <use xlink:href="#path-49"></use>
                    </mask>
                    <g id="Clip-1174"></g>
                    <polygon id="Fill-1173" fill="#F1F0EF" mask="url(#mask-50)" points="-5 -5 9.6276 -5 9.6276 9.6276 -5 9.6276"></polygon>
                </g>
                <g id="Group-1178" transform="translate(28.001196, 30.542572)">
                    <mask id="mask-52" fill="white">
                        <use xlink:href="#path-51"></use>
                    </mask>
                    <g id="Clip-1177"></g>
                    <polygon id="Fill-1176" fill="#F1F0EF" mask="url(#mask-52)" points="-4.99997 -5 9.2477 -5 9.2477 9.2477 -4.99997 9.2477"></polygon>
                </g>
                <g id="Group-1181" transform="translate(28.811126, 29.353772)">
                    <mask id="mask-54" fill="white">
                        <use xlink:href="#path-53"></use>
                    </mask>
                    <g id="Clip-1180"></g>
                    <polygon id="Fill-1179" fill="#F1F0EF" mask="url(#mask-54)" points="-5 -5 9.62757 -5 9.62757 9.626 -5 9.626"></polygon>
                </g>
                <g id="Group-1184" transform="translate(31.488396, 30.542572)">
                    <mask id="mask-56" fill="white">
                        <use xlink:href="#path-55"></use>
                    </mask>
                    <g id="Clip-1183"></g>
                    <polygon id="Fill-1182" fill="#F1F0EF" mask="url(#mask-56)" points="-5 -5 9.2477 -5 9.2477 9.2477 -5 9.2477"></polygon>
                </g>
                <g id="Group-1187" transform="translate(31.298596, 29.353772)">
                    <mask id="mask-58" fill="white">
                        <use xlink:href="#path-57"></use>
                    </mask>
                    <g id="Clip-1186"></g>
                    <polygon id="Fill-1185" fill="#F1F0EF" mask="url(#mask-58)" points="-5 -5 9.626 -5 9.626 9.626 -5 9.626"></polygon>
                </g>
                <g id="Group-1190" transform="translate(35.973996, 30.542572)">
                    <mask id="mask-60" fill="white">
                        <use xlink:href="#path-59"></use>
                    </mask>
                    <g id="Clip-1189"></g>
                    <polygon id="Fill-1188" fill="#F1F0EF" mask="url(#mask-60)" points="-5 -5 9.2477 -5 9.2477 9.2477 -5 9.2477"></polygon>
                </g>
                <g id="Group-1193" transform="translate(35.784496, 29.353772)">
                    <mask id="mask-62" fill="white">
                        <use xlink:href="#path-61"></use>
                    </mask>
                    <g id="Clip-1192"></g>
                    <polygon id="Fill-1191" fill="#F1F0EF" mask="url(#mask-62)" points="-5 -5 9.6276 -5 9.6276 9.626 -5 9.626"></polygon>
                </g>
            </g>
        </g>
    </g>
</svg>